<svg id="svg1" height="1100" viewBox="0 0 1700 1100" width="1700" xmlns="http://www.w3.org/2000/svg" xmlns:inkscape="http://www.inkscape.org/namespaces/inkscape" xmlns:sodipodi="http://sodipodi.sourceforge.net/DTD/sodipodi-0.dtd"><sodipodi:namedview pagecolor="#303030" showgrid="true"><inkscape:grid id="grid5" units="px" spacingx="100" spacingy="100" color="#4772b3" opacity="0.2" visible="true" /></sodipodi:namedview><g fill="#fff"><g id="g2"><g id="g1"><path id="path1" d="m142.62632 223.16788-3.50184 3.97282c-.16816.1894-.16816.4746 0 .664l3.49007 4.02794c.19883.2227.54727.2227.7461 0l3.5143-4.00743c.16816-.1894.16816-.4746 0-.664l-3.50253-3.99333c-.1893-.22134-.55525-.21626-.7461 0z" fill-rule="evenodd" transform="matrix(100 0 0 100 -13100.021 -22199.918)"/></g></g><path id="path1-5-1" d="m100.10139 288.95469-.0379 522.53349c.0947 61.91354 66.04381 113.04109 127.52092 76.10615l497.90214-310.24146c22.07988-13.75783 21.49513-45.81335-.31907-59.04658l-497.42174-301.75106c-70.04051-44.24982-127.69694 6.79707-127.64435 72.39946z" fill-rule="evenodd" stroke-width="75.1474"/></g></svg>