<svg id="svg1" height="1100" viewBox="0 0 1700 1100" width="1700" xmlns="http://www.w3.org/2000/svg" xmlns:inkscape="http://www.inkscape.org/namespaces/inkscape" xmlns:sodipodi="http://sodipodi.sourceforge.net/DTD/sodipodi-0.dtd"><sodipodi:namedview pagecolor="#303030" showgrid="true"><inkscape:grid id="grid5" units="px" spacingx="100" spacingy="100" color="#4772b3" opacity="0.2" visible="true" /></sodipodi:namedview><g fill="#fff"><g id="g1"><g id="g2" transform="matrix(-1 0 0 1 1699.7994 .011066)"><path id="path1" d="m142.62632 223.16788-3.50184 3.97282c-.16816.1894-.16816.4746 0 .664l3.49007 4.02794c.19883.2227.54727.2227.7461 0l3.5143-4.00743c.16816-.1894.16816-.4746 0-.664l-3.50253-3.99333c-.1893-.22134-.55525-.21626-.7461 0z" fill-rule="evenodd" transform="matrix(100 0 0 100 -13100.021 -22199.918)"/></g></g><path id="path1-5-1-9" d="m1599.8685 289.06019.038 522.25802c-.095 61.881-66.0091 112.98151-127.4538 76.06606l-497.64021-310.07793c-22.06819-13.75058-21.4838-45.78929.31889-59.01542l497.15992-301.59198c70.0036-44.2265 127.6297 6.79343 127.5772 72.36125z" fill-rule="evenodd" stroke-width="75.1078"/></g></svg>